<svg xmlns="http://www.w3.org/2000/svg" width="28" height="26" viewBox="0 0 28 26" fill="none">
<path d="M21.8912 16.0933C21.5459 16.4279 21.3872 16.9119 21.4659 17.3866L22.6512 23.9466C22.7512 24.5026 22.5165 25.0653 22.0512 25.3866C21.5952 25.7199 20.9885 25.7599 20.4912 25.4933L14.5858 22.4132C14.3805 22.3039 14.1525 22.2453 13.9192 22.2386H13.5578C13.4325 22.2573 13.3099 22.2972 13.1979 22.3586L7.29118 25.4533C6.99918 25.5999 6.66852 25.6519 6.34452 25.5999C5.55518 25.4506 5.02852 24.6986 5.15785 23.9053L6.34452 17.3453C6.42318 16.8666 6.26452 16.3799 5.91918 16.0399L1.10452 11.3733C0.70185 10.9826 0.56185 10.3959 0.74585 9.86658C0.924517 9.33858 1.38052 8.95325 1.93118 8.86658L8.55785 7.90525C9.06185 7.85325 9.50452 7.54659 9.73118 7.09325L12.6512 1.10659C12.7205 0.973252 12.8099 0.850585 12.9179 0.746585L13.0378 0.653252C13.1005 0.583919 13.1725 0.526585 13.2525 0.479919L13.3979 0.426585L13.6245 0.333252H14.1859C14.6872 0.385252 15.1285 0.685252 15.3592 1.13325L18.3179 7.09325C18.5312 7.52925 18.9459 7.83192 19.4245 7.90525L26.0512 8.86658C26.6112 8.94658 27.0792 9.33325 27.2645 9.86658C27.4392 10.4013 27.2885 10.9879 26.8779 11.3733L21.8912 16.0933Z" fill="#FD853A"/>
</svg>